<svg width="15" height="16" viewBox="0 0 15 16" fill="none" xmlns="http://www.w3.org/2000/svg">
<g id="Group">
<path id="Shape" fill-rule="evenodd" clip-rule="evenodd" d="M14.3 8.16078C14.3 7.65851 14.2549 7.17555 14.1712 6.71191H7.5V9.45188H11.3121C11.1479 10.3373 10.6489 11.0875 9.89868 11.5898V13.367H12.1879C13.5273 12.1339 14.3 10.318 14.3 8.16078Z" fill="#4285F4"/>
<path id="Shape_2" fill-rule="evenodd" clip-rule="evenodd" d="M7.50181 15.0832C9.41431 15.0832 11.0177 14.4489 12.1897 13.3671L9.90049 11.5898C9.26621 12.0148 8.45484 12.266 7.50181 12.266C5.65692 12.266 4.09536 11.0199 3.53836 9.3457H1.17188V11.1809C2.33741 13.4959 4.73287 15.0832 7.50181 15.0832Z" fill="#34A853"/>
<path id="Shape_3" fill-rule="evenodd" clip-rule="evenodd" d="M3.53786 9.34575C3.39619 8.92075 3.3157 8.46677 3.3157 7.99991C3.3157 7.53306 3.39619 7.07908 3.53786 6.65408V4.81885H1.17138C0.691643 5.7751 0.417969 6.85692 0.417969 7.99991C0.417969 9.14291 0.691643 10.2247 1.17138 11.181L3.53786 9.34575Z" fill="#FBBC05"/>
<path id="Shape_4" fill-rule="evenodd" clip-rule="evenodd" d="M7.50181 3.73374C8.54177 3.73374 9.47549 4.09113 10.2096 4.79303L12.2412 2.76139C11.0145 1.6184 9.41109 0.916504 7.50181 0.916504C4.73287 0.916504 2.33741 2.50382 1.17188 4.81878L3.53836 6.65401C4.09536 4.97977 5.65692 3.73374 7.50181 3.73374Z" fill="#EA4335"/>
</g>
</svg>
