<svg xmlns="http://www.w3.org/2000/svg" width="97" height="20" viewBox="0 0 97 20" fill="none">
  <path d="M10.7721 9.65456C9.75165 9.65456 8.91771 10.014 8.91771 11.1942V14.621H6.18325V11.2288C6.18325 10.0249 5.65545 9.65456 4.59876 9.65456C3.54206 9.65456 2.74433 10.014 2.74433 11.1942V14.621H0V7.66237H2.74543V8.80896C3.50805 7.94062 4.49342 7.43066 5.83212 7.43066C7.04133 7.43066 8.14411 7.9168 8.6368 9.16734C9.43453 8.07921 10.5022 7.43066 12.0044 7.43066C13.647 7.43066 15.1021 8.33365 15.1021 10.7882V14.621H12.3676V11.2288C12.3676 10.0249 11.8277 9.65456 10.7721 9.65456Z" fill="#0F172A"/>
  <path d="M16.1094 12.2939C16.1094 10.4414 18.0922 9.90872 20.1112 9.90872C21.2612 9.90872 22.353 10.0473 23.3153 10.2909C23.2802 9.38793 22.5999 9.08693 21.18 9.08693C19.8896 9.08693 18.6803 9.29482 17.0146 9.67701L16.6866 7.76602C18.2469 7.43038 19.9258 7.18677 21.6968 7.18677C24.6661 7.18677 26.0509 8.17096 26.0509 10.7532V14.3771H23.3164V13.4622C22.0721 14.2374 20.5117 14.6196 19.3618 14.6196C17.5315 14.6196 16.1116 13.9137 16.1116 12.2918L16.1094 12.2939ZM20.2747 12.8385C21.0966 12.8385 22.4814 12.5495 23.3142 12.2712V11.6919C22.2696 11.5295 21.3665 11.4029 20.4865 11.4029C19.3486 11.4029 18.9492 11.6227 18.9492 12.1554C18.9492 12.5603 19.3486 12.8385 20.2747 12.8385Z" fill="#0F172A"/>
  <path d="M27.4219 7.66224H30.1673V9.22569C31.0473 8.16029 32.2566 7.43054 34.2042 7.43054C36.3045 7.43054 37.7364 8.33353 37.7364 10.8931V14.6219H34.991V11.913C34.991 10.3734 34.4632 9.65552 32.8315 9.65552C31.1187 9.65552 30.1673 10.3961 30.1673 11.8783V14.623H27.4219V7.66224Z" fill="#0F172A"/>
  <path d="M38.5938 17.1231V15.1082C39.6494 15.3399 40.3769 15.4557 40.8586 15.4557C41.7507 15.4557 42.0557 15.3745 42.5254 14.5289H41.3524L38.0078 7.57031H40.942L43.4175 12.711L45.8941 7.57031H48.8282L45.578 14.2972C44.6036 16.3468 43.4306 17.5389 41.2361 17.5389C40.5085 17.5389 39.5111 17.3884 38.596 17.122L38.5938 17.1231Z" fill="#0F172A"/>
  <path d="M54.5255 5.11583C55.2058 5.11583 55.9454 5.15048 56.5796 5.23168V6.9218C55.7819 6.86442 55.5229 6.8406 55.2069 6.8406C54.1151 6.8406 53.8452 7.08421 53.8342 7.66238H56.5796V9.61884H53.8342V14.621H51.1348V9.61884H49.4922V7.66238H51.1348V7.36138C51.1348 6.01773 52.1904 5.11475 54.5266 5.11475L54.5255 5.11583Z" fill="#0F172A"/>
  <path d="M57.3125 12.2939C57.3125 10.4414 59.2953 9.90872 61.3143 9.90872C62.4643 9.90872 63.5561 10.0473 64.5184 10.2909C64.4833 9.38793 63.803 9.08693 62.3831 9.08693C61.0927 9.08693 59.8835 9.29482 58.2178 9.67701L57.8897 7.76602C59.45 7.43038 61.1289 7.18677 62.8999 7.18677C65.8692 7.18677 67.2529 8.17096 67.2529 10.7532V14.3771H64.5184V13.4622C63.2741 14.2374 61.7137 14.6196 60.5638 14.6196C58.7335 14.6196 57.3136 13.9137 57.3136 12.2918L57.3125 12.2939ZM61.4778 12.8385C62.2997 12.8385 63.6834 12.5495 64.5173 12.2712V11.6919C63.4727 11.5295 62.5696 11.4029 61.6896 11.4029C60.5517 11.4029 60.1523 11.6227 60.1523 12.1554C60.1523 12.5603 60.5517 12.8385 61.4778 12.8385Z" fill="#0F172A"/>
  <path d="M68.0235 12.0746H70.8633C70.8633 12.5726 71.2627 12.8736 72.9053 12.8736C74.3724 12.8736 74.7356 12.6646 74.7356 12.2716C74.7356 11.8548 74.3252 11.7389 72.8702 11.6231L72.2601 11.5765C69.4906 11.3567 68.1881 11.0438 68.1881 9.51503C68.1881 7.71988 70.183 7.1991 72.7177 7.1991C75.2525 7.1991 77.165 7.83573 77.2825 9.53776H74.4427C74.4306 9.07436 73.9028 8.84266 72.6585 8.84266C71.4141 8.84266 70.9807 9.03971 70.9807 9.35262C70.9807 9.68826 71.2978 9.80411 72.6826 9.90805L73.4101 9.96544C76.0853 10.1733 77.5293 10.4516 77.5293 12.1417C77.5293 14.0982 75.6749 14.62 72.9525 14.62C69.8779 14.62 68.0125 13.9249 68.0235 12.0724V12.0746Z" fill="#0F172A"/>
  <path d="M79.3656 12.3061V9.38822H77.9688V7.43176H79.3656V6.15848L82.0649 5.46338V7.43176H84.9278V9.38822H82.0649V11.3339C82.0649 11.9705 82.3579 12.422 83.1447 12.422C83.7899 12.422 84.1191 12.3646 84.9278 12.1903V14.3211C84.2705 14.4835 83.4256 14.6221 82.5104 14.6221C80.4804 14.6221 79.3656 13.8577 79.3656 12.3061Z" fill="#0F172A"/>
  <path d="M96.7833 9.74451H91.8455L88.8828 19.489L96.7833 9.74451Z" fill="#0F172A"/>
  <path d="M86.9062 9.74444H91.8441L94.8068 0L86.9062 9.74444Z" fill="#0F172A"/>
</svg>